<svg version="1.1" id="Layer_1" xmlns="http://www.w3.org/2000/svg" xmlns:xlink="http://www.w3.org/1999/xlink" x="0px" y="0px"
	 width="100%" viewBox="0 0 500 500" enable-background="new 0 0 500 500" xml:space="preserve">
<path fill="#0156CF" opacity="1.000000" stroke="none" 
	d="
M345.000000,501.000000 
	C230.000031,501.000000 115.500053,501.000000 1.000062,501.000000 
	C1.000041,334.333405 1.000041,167.666794 1.000021,1.000151 
	C167.666550,1.000101 334.333099,1.000101 500.999756,1.000050 
	C500.999817,167.666519 500.999817,334.333038 500.999908,500.999786 
	C449.166656,501.000000 397.333344,501.000000 345.000000,501.000000 
M314.361420,424.898468 
	C318.796753,423.015015 323.292877,421.261993 327.658478,419.228760 
	C406.075073,382.707245 448.366394,300.896667 432.737946,216.028763 
	C418.343994,137.864792 352.004333,75.966103 272.312347,67.187691 
	C227.925064,62.298237 186.677948,71.958160 149.140656,96.627197 
	C83.869865,139.522339 52.265266,220.271378 71.399979,295.555115 
	C98.519188,402.253052 209.771484,461.758209 314.361420,424.898468 
z"/>
<path fill="#F7F8F8" opacity="1.000000" stroke="none" 
	d="
M313.984955,425.001465 
	C209.771484,461.758209 98.519188,402.253052 71.399979,295.555115 
	C52.265266,220.271378 83.869865,139.522339 149.140656,96.627197 
	C186.677948,71.958160 227.925064,62.298237 272.312347,67.187691 
	C352.004333,75.966103 418.343994,137.864792 432.737946,216.028763 
	C448.366394,300.896667 406.075073,382.707245 327.658478,419.228760 
	C323.292877,421.261993 318.796753,423.015015 313.984955,425.001465 
M227.099838,231.068344 
	C230.752563,232.111206 234.405273,233.154053 238.436676,234.305038 
	C239.574890,231.651672 240.657608,229.127670 241.814240,226.431396 
	C233.363525,222.434265 224.700272,221.566803 215.798599,221.916260 
	C196.824097,222.661209 183.710114,233.706375 180.504929,252.310287 
	C179.640335,257.328796 179.733795,262.623627 180.146500,267.730286 
	C181.434799,283.671448 191.253372,295.848755 205.258881,298.851654 
	C217.052856,301.380341 228.772247,300.135223 240.283539,296.886322 
	C241.367813,296.580322 242.871613,295.057495 242.886917,294.079376 
	C243.068375,282.477448 243.003769,270.871674 243.003769,259.063690 
	C234.071228,259.063690 225.646301,259.063690 217.017319,259.063690 
	C217.017319,261.777100 217.017319,264.340363 217.017319,267.503662 
	C222.540070,267.503662 227.764404,267.503662 233.305923,267.503662 
	C233.305923,270.918060 233.305939,273.732086 233.305954,276.546112 
	C233.306046,291.855225 232.510605,292.589935 216.874603,291.723846 
	C202.730591,290.940399 193.951660,284.635529 191.305557,272.303131 
	C190.103073,266.698883 189.726212,260.683502 190.282349,254.982147 
	C191.645935,241.002930 200.423584,232.296494 214.350418,230.587601 
	C218.244156,230.109833 222.281738,230.804550 227.099838,231.068344 
M257.844025,255.298553 
	C257.905304,259.950165 257.608215,264.639587 258.093750,269.246460 
	C259.661194,284.118500 269.186462,295.707520 282.573914,298.747559 
	C294.518982,301.460022 306.412598,300.165558 318.093842,296.873718 
	C319.189911,296.564819 320.713806,295.033661 320.729401,294.049164 
	C320.913605,282.450745 320.847778,270.848389 320.847778,259.251343 
	C311.691071,259.251343 303.149628,259.251343 294.647614,259.251343 
	C294.647614,262.070862 294.647614,264.484039 294.647614,267.415955 
	C300.238098,267.415955 305.495636,267.415955 310.841675,267.415955 
	C310.841675,275.221161 310.841675,282.499695 310.841675,289.704041 
	C295.824677,294.408722 280.755890,291.390289 273.700500,282.382019 
	C266.242249,272.859344 265.071106,253.075592 272.258453,242.587616 
	C283.756531,225.809357 299.740631,229.174347 316.210541,234.330582 
	C317.326019,231.666794 318.379211,229.151855 319.521667,226.423691 
	C310.810608,222.314438 301.975861,221.529648 292.913269,221.949982 
	C273.608795,222.845322 260.302155,235.172775 257.844025,255.298553 
z"/>
<path fill="#075AD0" opacity="1.000000" stroke="none" 
	d="
M226.676590,231.014893 
	C222.281738,230.804550 218.244156,230.109833 214.350418,230.587601 
	C200.423584,232.296494 191.645935,241.002930 190.282349,254.982147 
	C189.726212,260.683502 190.103073,266.698883 191.305557,272.303131 
	C193.951660,284.635529 202.730591,290.940399 216.874603,291.723846 
	C232.510605,292.589935 233.306046,291.855225 233.305954,276.546112 
	C233.305939,273.732086 233.305923,270.918060 233.305923,267.503662 
	C227.764404,267.503662 222.540070,267.503662 217.017319,267.503662 
	C217.017319,264.340363 217.017319,261.777100 217.017319,259.063690 
	C225.646301,259.063690 234.071228,259.063690 243.003769,259.063690 
	C243.003769,270.871674 243.068375,282.477448 242.886917,294.079376 
	C242.871613,295.057495 241.367813,296.580322 240.283539,296.886322 
	C228.772247,300.135223 217.052856,301.380341 205.258881,298.851654 
	C191.253372,295.848755 181.434799,283.671448 180.146500,267.730286 
	C179.733795,262.623627 179.640335,257.328796 180.504929,252.310287 
	C183.710114,233.706375 196.824097,222.661209 215.798599,221.916260 
	C224.700272,221.566803 233.363525,222.434265 241.814240,226.431396 
	C240.657608,229.127670 239.574890,231.651672 238.436676,234.305038 
	C234.405273,233.154053 230.752563,232.111206 226.676590,231.014893 
z"/>
<path fill="#085BD0" opacity="1.000000" stroke="none" 
	d="
M257.881378,254.864258 
	C260.302155,235.172775 273.608795,222.845322 292.913269,221.949982 
	C301.975861,221.529648 310.810608,222.314438 319.521667,226.423691 
	C318.379211,229.151855 317.326019,231.666794 316.210541,234.330582 
	C299.740631,229.174347 283.756531,225.809357 272.258453,242.587616 
	C265.071106,253.075592 266.242249,272.859344 273.700500,282.382019 
	C280.755890,291.390289 295.824677,294.408722 310.841675,289.704041 
	C310.841675,282.499695 310.841675,275.221161 310.841675,267.415955 
	C305.495636,267.415955 300.238098,267.415955 294.647614,267.415955 
	C294.647614,264.484039 294.647614,262.070862 294.647614,259.251343 
	C303.149628,259.251343 311.691071,259.251343 320.847778,259.251343 
	C320.847778,270.848389 320.913605,282.450745 320.729401,294.049164 
	C320.713806,295.033661 319.189911,296.564819 318.093842,296.873718 
	C306.412598,300.165558 294.518982,301.460022 282.573914,298.747559 
	C269.186462,295.707520 259.661194,284.118500 258.093750,269.246460 
	C257.608215,264.639587 257.905304,259.950165 257.881378,254.864258 
z"/>
</svg>